<?xml version="1.0" encoding="UTF-8" standalone="no"?><!DOCTYPE svg PUBLIC "-//W3C//DTD SVG 1.1//EN" "http://www.w3.org/Graphics/SVG/1.1/DTD/svg11.dtd"><svg width="100%" height="100%" viewBox="0 0 170 125" version="1.1" xmlns="http://www.w3.org/2000/svg" xmlns:xlink="http://www.w3.org/1999/xlink" xml:space="preserve" xmlns:serif="http://www.serif.com/" style="fill-rule:evenodd;clip-rule:evenodd;stroke-linejoin:round;stroke-miterlimit:1.41421;"><g><path d="M139.56,124.957c30.622,-20.663 38.709,-62.3 18.046,-92.923c-20.663,-30.623 -62.301,-38.709 -92.923,-18.046c21.551,-1.084 48.609,12.206 65.18,36.765c16.572,24.559 18.768,54.625 9.697,74.204Z" style="fill:#e4dc34;"/><path d="M46.183,19.568l1.871,16.876l16.629,3.436l-15.473,6.994l1.871,16.876l-11.433,-12.553l-15.472,6.994l8.406,-14.753l-11.433,-12.553l16.628,3.436l8.406,-14.753Z" style="fill:#e4dc34;"/><path d="M6.871,28.589l1.622,4.993l5.249,0l-4.246,3.085l1.622,4.992l-4.247,-3.085l-4.246,3.085l1.622,-4.992l-4.247,-3.085l5.249,0l1.622,-4.993Z" style="fill:#e4dc34;"/><path d="M55.225,0l2.233,6.871l7.225,0l-5.845,4.247l2.232,6.871l-5.845,-4.247l-5.845,4.247l2.233,-6.871l-5.845,-4.247l7.225,0l2.232,-6.871Z" style="fill:#e4dc34;"/></g></svg>